<svg xmlns="http://www.w3.org/2000/svg" width="800" height="450" viewBox="0 0 800 450">
  <defs>
    <linearGradient id="bg" x1="0%" y1="0%" x2="100%" y2="100%">
      <stop offset="0%" style="stop-color:#0f172a"/>
      <stop offset="100%" style="stop-color:#1e293b"/>
    </linearGradient>
  </defs>
  <rect width="800" height="450" fill="url(#bg)" rx="12"/>
  <rect x="24" y="24" width="752" height="402" fill="#1e293b" stroke="#334155" stroke-width="2" rx="8"/>
  <rect x="24" y="24" width="752" height="48" fill="#0f172a" rx="8"/>
  <circle cx="52" cy="48" r="8" fill="#ef4444"/>
  <circle cx="76" cy="48" r="8" fill="#eab308"/>
  <circle cx="100" cy="48" r="8" fill="#22c55e"/>
  <text x="400" y="54" text-anchor="middle" fill="#94a3b8" font-family="system-ui,sans-serif" font-size="14">BugRicer — Whatsapp Admin</text>
  <rect x="48" y="96" width="200" height="300" fill="#0f172a" stroke="#334155" rx="6"/>
  <rect x="72" y="120" width="152" height="12" fill="#3b82f6" rx="3" opacity="0.8"/>
  <rect x="72" y="144" width="120" height="8" fill="#475569" rx="2"/>
  <rect x="72" y="164" width="130" height="8" fill="#475569" rx="2"/>
  <rect x="72" y="184" width="110" height="8" fill="#475569" rx="2"/>
  <rect x="272" y="96" width="480" height="300" fill="#0f172a" stroke="#334155" rx="6"/>
  <rect x="296" y="120" width="200" height="16" fill="#e2e8f0" rx="4"/>
  <rect x="296" y="152" width="432" height="10" fill="#475569" rx="2"/>
  <rect x="296" y="172" width="380" height="10" fill="#475569" rx="2"/>
  <rect x="296" y="192" width="400" height="10" fill="#475569" rx="2"/>
  <rect x="296" y="228" width="432" height="120" fill="#1e293b" stroke="#3b82f6" stroke-width="2" stroke-dasharray="8 4" rx="6"/>
  <text x="512" y="295" text-anchor="middle" fill="#3b82f6" font-family="system-ui,sans-serif" font-size="13">Step 1 preview</text>
  <circle cx="720" cy="72" r="22" fill="#3b82f6"/>
  <text x="720" y="78" text-anchor="middle" fill="white" font-family="system-ui,sans-serif" font-size="16" font-weight="bold">1</text>
  <text x="400" y="430" text-anchor="middle" fill="#64748b" font-family="system-ui,sans-serif" font-size="12">Placeholder screenshot — replace with real capture</text>
</svg>